<?xml version="1.0" encoding="UTF-8"?>
<svg width="413px" height="223px" viewBox="0 0 413 223" version="1.1" xmlns="http://www.w3.org/2000/svg" xmlns:xlink="http://www.w3.org/1999/xlink">
    <!-- Generator: Sketch 64 (93537) - https://sketch.com -->
    <title>Roxie_Logo</title>
    <desc>Created with Sketch.</desc>
    <defs>
        <polygon id="path-1" points="0.2693 0.8686 32.105 0.8686 32.105 48.6966 0.2693 48.6966"></polygon>
        <polygon id="path-3" points="0.0971 0.8282 73.2021 0.8282 73.2021 74 0.0971 74"></polygon>
        <polygon id="path-5" points="0 0.5337 109.890387 0.5337 109.890387 115.4287 0 115.4287"></polygon>
    </defs>
    <g id="Page-1" stroke="none" stroke-width="1" fill="none" fill-rule="evenodd">
        <g id="Roxie-Logo" transform="translate(0.000000, -1.000000)">
            <g id="Roxie_Logo">
                <polygon id="Fill-1" fill="#000586" points="290.2997 210.0293 290.2997 175.0533 276.3997 175.0533 276.3997 165.7763 315.4487 165.7763 315.4487 175.0533 301.4847 175.0533 301.4847 210.0293"></polygon>
                <g id="Group-27" transform="translate(0.000000, 0.333000)">
                    <path d="M333.3949,189.6914 C333.5269,189.2274 333.5269,188.6984 333.5269,188.1694 C333.5269,185.4514 331.8739,183.0674 328.7629,183.0674 C325.3869,183.0674 323.1369,185.5844 322.8059,189.6914 L333.3949,189.6914 Z M334.4549,198.1024 L343.3239,201.1514 C341.2729,207.6454 335.2489,210.4944 328.7629,210.4944 C318.7029,210.4944 312.2149,204.0654 312.2149,193.2684 C312.2149,182.3374 318.5699,175.3824 329.0289,175.3824 C338.8229,175.3824 343.5869,182.1394 343.5869,190.4204 C343.5869,191.8094 343.3239,193.7324 342.9939,194.8584 L322.6739,194.8584 C322.7389,199.6274 325.2559,202.4104 328.9609,202.4104 C331.6739,202.4104 333.5949,201.0874 334.4549,198.1024 L334.4549,198.1024 Z" id="Fill-2" fill="#000586"></path>
                    <path d="M362.392,175.3828 C370.731,175.3828 376.026,179.9528 376.687,186.7758 L367.289,188.8308 C367.023,185.7818 365.636,183.3988 362.59,183.3988 C358.552,183.3988 356.766,187.2408 356.766,192.9388 C356.766,198.9658 358.684,202.4098 362.59,202.4098 C365.305,202.4098 367.091,200.4248 367.422,197.0448 L376.886,199.9578 C375.628,206.5178 370.135,210.4938 362.658,210.4938 C352.465,210.4938 345.912,203.8698 345.912,192.9388 C345.912,182.0068 352.465,175.3828 362.392,175.3828" id="Fill-4" fill="#000586"></path>
                    <g id="Group-8" transform="translate(380.000000, 161.000000)">
                        <mask id="mask-2" fill="white">
                            <use xlink:href="#path-1"></use>
                        </mask>
                        <g id="Clip-7"></g>
                        <path d="M11.1913,21.1396 C12.9773,16.7666 16.8823,14.3826 21.6473,14.3826 C27.6713,14.3826 32.1053,18.0926 32.1053,25.2456 L32.1053,48.6966 L21.1833,48.6966 L21.1833,28.7586 C21.1833,25.4446 19.9933,23.4586 16.8173,23.4586 C13.7713,23.4586 11.1913,25.4446 11.1913,30.5466 L11.1913,48.6966 L0.2693,48.6966 L0.2693,0.8686 L11.1913,0.8686 L11.1913,21.1396 Z" id="Fill-6" fill="#000586" mask="url(#mask-2)"></path>
                    </g>
                    <g id="Group-11" transform="translate(195.000000, 149.000000)">
                        <mask id="mask-4" fill="white">
                            <use xlink:href="#path-3"></use>
                        </mask>
                        <g id="Clip-10"></g>
                        <path d="M43.6381,54.5722 L47.1181,38.8112 L40.0621,38.8112 L36.6971,23.8192 L36.6011,23.8192 L33.2361,38.8112 L26.1811,38.8112 L29.6611,54.5722 L29.7581,54.5722 L33.3871,38.8112 L39.9121,38.8112 L43.5421,54.5722 L43.6381,54.5722 Z M47.5691,38.8112 L54.7681,38.8112 L47.5691,63.2022 L40.0621,63.2022 L36.6971,48.2102 L36.6011,48.2102 L33.2361,63.2022 L25.7301,63.2022 L18.5311,38.8112 L25.7301,38.8112 L18.5311,14.4212 L26.1811,14.4212 L29.6611,30.1832 L29.7581,30.1832 L33.3871,14.4212 L39.9121,14.4212 L43.5421,30.1832 L43.6381,30.1832 L47.1181,14.4212 L54.7681,14.4212 L47.5691,38.8112 Z M73.2021,37.4142 C73.2021,17.2082 56.8361,0.8282 36.6501,0.8282 C16.4621,0.8282 0.0971,17.2082 0.0971,37.4142 C0.0971,57.6212 16.4621,74.0002 36.6501,74.0002 C56.8361,74.0002 73.2021,57.6212 73.2021,37.4142 L73.2021,37.4142 Z" id="Fill-9" fill="#000586" mask="url(#mask-4)"></path>
                    </g>
                    <g id="Group-14" transform="translate(0.000000, 12.000000)">
                        <mask id="mask-6" fill="white">
                            <use xlink:href="#path-5"></use>
                        </mask>
                        <g id="Clip-13"></g>
                        <path d="M65.3256,23.9267 L44.5136,23.9267 L39.4796,52.4777 L60.4636,52.4777 C70.7836,52.4777 76.9346,47.8337 78.6936,37.8587 C80.2706,28.9137 76.1616,23.9267 65.3256,23.9267 L65.3256,23.9267 Z M70.0026,115.4287 C67.5446,111.8167 66.7446,108.5487 66.7126,102.8727 L66.3166,87.5657 C65.8086,77.7617 61.4786,75.0097 52.5336,75.0097 L35.5066,75.0097 L28.3796,115.4287 L-0.0004,115.4287 L20.2596,0.5337 L72.5466,0.5337 C99.0346,0.5337 113.2906,11.3697 109.1966,34.5897 C106.1936,51.6177 92.5376,61.7657 79.3646,63.3137 L79.3036,63.6567 C89.3206,65.3777 94.3396,71.0537 95.1506,82.0617 L96.3056,101.8407 C96.7126,107.3447 98.0486,111.4727 100.9626,115.4287 L70.0026,115.4287 Z" id="Fill-12" fill="#000586" mask="url(#mask-6)"></path>
                    </g>
                    <polygon id="Fill-15" fill="#000586" points="235.0712 102.1455 234.7262 102.1455 214.6172 127.4285 185.2052 127.4285 222.6742 82.7095 202.4432 40.3985 232.5432 40.3985 242.5722 64.4775 242.9162 64.4775 261.4382 40.3985 290.5062 40.3985 255.1822 82.7095 276.8802 127.4285 246.7802 127.4285"></polygon>
                    <path d="M325.8182,40.3984 L310.4722,127.4284 L282.0922,127.4284 L297.4382,40.3984 L325.8182,40.3984 Z M313.3522,31.1104 C304.7532,31.1104 297.8112,25.6064 299.5092,15.9744 C301.2382,6.1704 310.1212,0.6674 318.7202,0.6674 C327.3202,0.6674 334.2622,6.1704 332.5332,15.9744 C330.8352,25.6064 321.9522,31.1104 313.3522,31.1104 L313.3522,31.1104 Z" id="Fill-17" fill="#000586"></path>
                    <path d="M382.8065,75.4853 C383.3625,74.2813 383.6055,72.9053 383.8475,71.5293 C385.0915,64.4773 381.8835,58.2863 373.7995,58.2863 C365.0275,58.2863 358.0265,64.8213 355.2865,75.4853 L382.8065,75.4853 Z M381.7065,97.3293 L403.3595,105.2413 C395.0555,122.0963 378.0985,129.4933 361.2435,129.4933 C335.0995,129.4933 321.1865,112.8083 326.1295,84.7733 C331.1335,56.3933 350.8295,38.3343 378.0045,38.3343 C403.4605,38.3343 412.7505,55.8783 408.9595,77.3783 C408.3235,80.9893 406.7565,85.9773 405.3805,88.9013 L352.5765,88.9013 C350.5655,101.2853 355.8275,108.5083 365.4595,108.5083 C372.5125,108.5083 378.1055,105.0693 381.7065,97.3293 L381.7065,97.3293 Z" id="Fill-19" fill="#000586"></path>
                    <path d="M188.0482,106.7011 C193.1102,99.9961 196.7132,92.2181 198.1772,83.9141 C200.6262,70.0301 196.6012,57.6051 188.2842,49.2451 L170.0472,63.2461 C175.9222,67.7041 178.9712,75.2961 177.4522,83.9141 C176.6532,88.4411 174.6882,92.6821 171.9282,96.3391 L164.4342,91.5221 L165.2882,121.0321 L195.5492,111.5221 L188.0482,106.7011 Z" id="Fill-21" fill="#000586"></path>
                    <path d="M156.9809,59.0605 L155.2809,68.6975 L181.3359,48.6975 L162.3349,28.6975 L160.6349,38.3335 C138.2909,38.3335 116.8789,54.4165 109.2429,75.6345 L128.0879,82.2955 C131.2099,69.3245 143.7989,59.0605 156.9809,59.0605" id="Fill-23" fill="#000586"></path>
                    <path d="M148.2157,108.7675 C139.0177,108.7675 131.8747,103.7665 128.8857,96.3385 L138.0787,91.5225 L111.1707,82.0125 L99.9107,111.5225 L109.1117,106.7015 C114.5917,120.3225 127.6927,129.4935 144.5617,129.4935 C149.9067,129.4935 155.1987,128.5645 160.2627,126.8735 L159.6657,106.2025 C156.0607,107.8415 152.1657,108.7675 148.2157,108.7675" id="Fill-25" fill="#000586"></path>
                </g>
            </g>
        </g>
    </g>
</svg>